<svg xmlns="http://www.w3.org/2000/svg" xmlns:xlink="http://www.w3.org/1999/xlink" width="220" height="67"><defs><path id="a" d="M0 66.192h219.652V0H0z"/></defs><g fill="none" fill-rule="evenodd"><path fill="#FEFEFE" d="M14.563 44.56c-1.336-1.182-3.157-1.821-4.905-1.821-4.168 0-7.34 3.475-7.34 7.594 0 4.06 3.147 7.534 7.288 7.534 1.824 0 3.577-.69 4.957-1.915v2.726c-1.43.838-3.253 1.308-4.878 1.308-5.3 0-9.685-4.21-9.685-9.578 0-5.505 4.41-9.793 9.875-9.793 1.632 0 3.278.396 4.688 1.266v2.678zm3.843 9.635c.033 1.972 1.357 3.82 3.478 3.82 1.698 0 2.61-.863 3.45-2.24l1.866 1.063c-1.077 1.99-3.104 3.149-5.343 3.149-3.52 0-5.666-2.656-5.666-6.062 0-3.55 1.898-6.212 5.618-6.212 3.674 0 5.39 2.721 5.39 6.145v.337h-8.793zm6.585-1.673c-.267-1.727-1.409-2.887-3.182-2.887-1.721 0-3.004 1.234-3.275 2.887h6.457z"/><mask id="b" fill="#fff"><use xlink:href="#a"/></mask><path fill="#FEFEFE" d="M29.204 59.592h2.221V38.21h-2.221zm6.702-5.397c.024 1.972 1.357 3.82 3.473 3.82 1.707 0 2.62-.863 3.448-2.24l1.88 1.063c-1.087 1.99-3.11 3.149-5.352 3.149-3.52 0-5.664-2.656-5.664-6.062 0-3.55 1.894-6.212 5.62-6.212 3.669 0 5.396 2.721 5.396 6.145v.337h-8.801zm6.58-1.673c-.268-1.727-1.4-2.887-3.175-2.887-1.728 0-3.012 1.234-3.284 2.887h6.46zm8.754-1.825c-.27-.566-.843-1.007-1.476-1.007-.621 0-1.212.493-1.212 1.134 0 1.008 1.334 1.449 2.688 2.067 1.354.618 2.66 1.451 2.66 3.276 0 2.194-1.827 3.82-3.964 3.82-1.679 0-3.384-.956-3.996-2.588l1.89-.867c.474.867 1.046 1.482 2.106 1.482.937 0 1.746-.643 1.746-1.625 0-.614-.297-.912-.81-1.252l-2.169-1.16c-1.284-.692-2.224-1.326-2.224-2.91 0-1.873 1.532-3.354 3.407-3.354 1.4 0 2.534.77 3.153 2.022l-1.799.962zm7.371 8.896h-2.223v-9.462h-1.207V48.06h1.207v-4.409h2.223v4.409h2.168v2.071h-2.168z" mask="url(#b)"/><path fill="#FEFEFE" d="M60.135 48.059h2.587l3.891 7.32 3.626-7.32h2.49l-9.344 18.133h-2.511l4.538-8.569zm24.593 11.534h-2.214v-1.798h-.047c-.89 1.309-2.266 2.192-3.923 2.192-3.52 0-5.513-2.93-5.513-6.236 0-3.149 2.094-6.038 5.435-6.038 1.704 0 3.083.892 4.001 2.273h.047V48.06h2.214v11.533zm-2.087-5.764c0-2.247-1.36-4.14-3.753-4.14-2.29 0-3.645 1.997-3.645 4.14 0 2.166 1.307 4.185 3.645 4.185 2.416 0 3.753-1.918 3.753-4.185zm5.077 5.763h2.219V38.21h-2.219zm24.529-14.754c-1.425-1.757-3.942-2.937-6.235-2.937-4.627 0-8.451 3.99-8.451 8.55 0 2.166.937 4.213 2.491 5.739 1.555 1.478 3.77 2.565 5.96 2.565 2.146 0 4.854-1.162 6.235-2.835v1.624c-1.75 1.453-3.896 2.312-6.19 2.312-5.166 0-9.678-4.312-9.678-9.505 0-5.273 4.439-9.561 9.706-9.561a9.23 9.23 0 016.162 2.413v1.635zm4.468 4.87h.045c.445-1.032 1.256-1.723 2.463-1.723.445 0 .82.102 1.212.274l-.59.978c-.272-.15-.494-.218-.79-.218-2.494 0-2.34 3.1-2.34 4.784v5.808H115.6V48.239h1.114v1.469zm13.752-1.47v6.82c0 1.156.022 2.314-.694 3.283-.788 1.032-2.118 1.514-3.395 1.514-1.286 0-2.616-.482-3.402-1.514-.713-.97-.693-2.127-.693-3.283v-6.82h1.109v6.426c0 2.189.244 4.159 2.986 4.159 2.728 0 2.98-1.97 2.98-4.16v-6.425h1.109zm5.617-3.801a.995.995 0 01-1.008 1.007.99.99 0 01-1.007-1.007c0-.541.436-1.01 1.007-1.01.564 0 1.008.469 1.008 1.01zm-1.58 15.174h1.112V48.238h-1.112v11.373zm10.134-9.311c-.372-.787-1.109-1.278-2-1.278-.955 0-1.937.781-1.937 1.772 0 2.735 5.54 1.402 5.54 5.518 0 2.096-1.625 3.543-3.67 3.543-1.901 0-3.455-1.152-3.918-3.002l1.085-.344c.412 1.359 1.325 2.314 2.833 2.314a2.54 2.54 0 002.558-2.554c0-1.408-1.085-1.855-2.22-2.248-1.557-.568-3.323-1.232-3.323-3.152 0-1.723 1.447-2.882 3.104-2.882 1.158 0 2.415.763 2.906 1.816l-.958.498zm4.461 3.72c-.076 2.887 1.917 4.803 4.557 4.803 1.776 0 3.202-1.055 4.017-2.582l.933.535c-1.032 1.98-2.852 3.08-5.097 3.08-3.376 0-5.522-2.731-5.522-5.955 0-3.186 2.198-5.914 5.522-5.914 3.445 0 5.497 2.758 5.468 6.034h-9.878zm8.773-1.036c-.27-2.09-1.997-3.962-4.336-3.962-2.316 0-4.236 1.82-4.437 3.962h8.773zm8.582-2.684c-.373-.787-1.113-1.278-1.998-1.278-.967 0-1.948.781-1.948 1.772 0 2.735 5.545 1.402 5.545 5.518 0 2.096-1.629 3.543-3.679 3.543-1.891 0-3.448-1.152-3.907-3.002l1.077-.344c.419 1.359 1.328 2.314 2.83 2.314a2.548 2.548 0 002.572-2.554c0-1.408-1.085-1.855-2.217-2.248-1.558-.568-3.333-1.232-3.333-3.152 0-1.723 1.458-2.882 3.108-2.882 1.157 0 2.412.763 2.907 1.816l-.957.498zm21.862-28.194l-.85-2.603-.21.065c-.14.048-.318.138-.553.225-.115.038-.244.11-.375.18-.134.066-.27.134-.42.205-.14.08-.289.19-.45.276-.151.104-.317.176-.47.303-.308.251-.642.44-.934.722-.301.268-.585.476-.824.734-.225.233-.43.432-.57.573-.069.06-.122.129-.16.17a.818.818 0 01-.057.07l2.016 1.85s.063-.105.188-.211c.115-.111.289-.274.481-.477.207-.232.438-.388.673-.61.246-.238.503-.37.743-.568.12-.111.241-.15.36-.229.114-.07.224-.158.326-.21.111-.048.214-.096.302-.15.098-.048.185-.102.263-.124.165-.05.287-.12.372-.152.093-.023.149-.039.149-.039m-1.272-3.901l-.846-2.6-.317.097c-.196.068-.477.194-.814.328-.177.06-.35.158-.545.258-.188.097-.395.192-.599.306-.209.108-.41.25-.621.376-.218.14-.445.249-.648.418-.413.321-.856.589-1.226.942-.379.333-.754.618-1.036.928-.288.293-.54.535-.708.711a2.12 2.12 0 00-.197.2c-.04.05-.065.077-.065.077l2.018 1.851s.016-.03.054-.07c.038-.047.093-.113.174-.183.15-.145.365-.36.625-.62.245-.272.564-.507.889-.793.322-.308.678-.516 1.027-.797.172-.143.36-.226.53-.337.17-.107.341-.229.508-.315.172-.079.33-.159.485-.24.143-.079.285-.158.42-.203.271-.102.49-.2.645-.266.162-.04.247-.068.247-.068m-1.262-3.898l-.846-2.608s-.153.047-.42.138c-.264.093-.645.258-1.084.44-.235.08-.47.198-.715.323-.25.131-.51.262-.78.403-.27.142-.536.319-.802.486-.271.17-.565.322-.814.526-.526.398-1.074.747-1.523 1.17-.464.401-.907.757-1.248 1.116-.347.347-.634.64-.839.834a2.67 2.67 0 00-.228.25c-.053.057-.087.09-.087.09l2.021 1.847s.02-.032.073-.086c.045-.048.108-.134.203-.215.183-.184.44-.437.755-.752.3-.324.695-.632 1.103-.99.4-.373.873-.665 1.322-1.012.226-.183.473-.305.702-.457.23-.14.457-.29.689-.412.228-.122.445-.229.653-.337.21-.111.41-.215.599-.283.374-.15.684-.286.915-.365l.351-.106m-1.266-3.906l-.845-2.597s-.188.057-.53.165c-.331.119-.79.313-1.353.54-.291.113-.571.262-.878.414a60.23 60.23 0 01-.965.489c-.325.184-.646.392-.974.595-.333.209-.683.394-.987.639-.63.466-1.28.901-1.81 1.383-.543.478-1.078.908-1.46 1.318-.412.4-.749.735-.975.97a2.535 2.535 0 00-.265.278c-.058.06-.09.099-.09.099l2.015 1.857s.027-.037.08-.096c.056-.058.131-.149.243-.262.207-.209.51-.512.882-.872.36-.383.827-.76 1.323-1.191.475-.441 1.058-.817 1.611-1.236.277-.22.584-.383.87-.566.298-.177.58-.365.862-.526.293-.144.582-.289.84-.43.275-.128.523-.26.769-.355.488-.197.89-.367 1.175-.475.295-.091.462-.14.462-.14M183.251 6.5l-.848-2.608s-.227.08-.632.208c-.397.15-.952.376-1.618.657-.342.131-.686.299-1.052.482-.368.184-.743.387-1.141.587-.39.208-.76.455-1.16.695-.378.244-.8.473-1.15.753-.734.533-1.494 1.058-2.107 1.61-.63.539-1.24 1.042-1.68 1.504-.453.455-.837.84-1.104 1.1a3.139 3.139 0 00-.294.32l-.095.112 2.01 1.85s.034-.038.091-.109c.062-.063.146-.162.272-.29.246-.24.6-.59 1.015-1.007.41-.434.972-.89 1.539-1.381.556-.51 1.251-.97 1.905-1.463.321-.253.698-.457 1.04-.677.356-.215.693-.436 1.042-.631.357-.174.704-.35 1.029-.514.319-.165.625-.322.926-.44a48.834 48.834 0 011.447-.579l.565-.179m-1.266-3.903L181.145 0l-.747.238c-.458.165-1.11.432-1.89.756-.388.154-.788.356-1.212.564-.422.213-.865.444-1.32.686-.447.247-.88.514-1.333.79-.444.28-.923.557-1.331.858-.834.616-1.706 1.225-2.399 1.843-.706.611-1.402 1.184-1.89 1.696-.512.514-.94.94-1.243 1.24-.15.15-.255.27-.322.356-.074.079-.116.12-.116.12l2.015 1.852s.04-.043.1-.122c.067-.073.168-.186.31-.326.277-.277.681-.675 1.153-1.153.454-.475 1.092-.998 1.749-1.557.636-.58 1.436-1.133 2.2-1.69.375-.292.809-.536 1.21-.791.416-.252.817-.506 1.217-.725.42-.213.824-.421 1.203-.623.384-.19.748-.37 1.106-.507.707-.303 1.29-.543 1.713-.693l.667-.215m16.513 22.353l2.134-1.711s-.05-.066-.132-.18c-.094-.103-.248-.253-.41-.439a1.837 1.837 0 00-.296-.283c-.11-.097-.227-.205-.348-.319-.124-.106-.28-.21-.424-.319-.14-.11-.263-.245-.442-.342-.35-.199-.639-.439-1.006-.611-.351-.183-.653-.379-.972-.508-.305-.142-.565-.253-.742-.33a1.515 1.515 0 00-.221-.093c-.045-.023-.078-.033-.078-.033l-1.009 2.537s.102.03.253.103c.147.07.36.174.62.289.279.105.519.274.81.416.31.141.516.33.793.488.147.072.226.167.342.25.103.089.22.161.31.239.08.083.162.16.243.235a.936.936 0 01.205.192c.113.131.221.226.287.295.048.076.083.124.083.124m3.198-2.57l2.132-1.707s-.074-.095-.201-.267c-.141-.16-.352-.37-.602-.647-.115-.143-.27-.272-.425-.415-.156-.145-.332-.303-.5-.457-.177-.147-.387-.294-.576-.45-.21-.152-.39-.325-.618-.456-.45-.272-.858-.593-1.317-.81-.452-.238-.84-.48-1.231-.639a30.476 30.476 0 01-.906-.412 3.328 3.328 0 00-.263-.11c-.07-.02-.1-.032-.1-.032l-1.018 2.538s.03.004.088.029c.055.02.138.052.226.1.197.083.47.208.804.362.344.134.677.342 1.052.55.409.183.735.453 1.11.675.207.109.343.256.514.37.152.132.322.246.463.375.138.124.273.244.396.36.13.113.256.215.35.33.189.211.358.385.467.51.098.126.155.203.155.203m3.201-2.565l2.136-1.707s-.099-.131-.275-.346c-.18-.22-.465-.505-.796-.872-.16-.179-.359-.353-.564-.543-.202-.18-.42-.385-.651-.59-.224-.194-.483-.381-.737-.578-.255-.186-.498-.406-.777-.573-.554-.347-1.077-.738-1.633-1.008-.539-.285-1.029-.587-1.492-.774-.442-.2-.811-.367-1.078-.485a2.478 2.478 0 00-.304-.125l-.111-.045-1.019 2.538.102.034c.061.028.162.061.275.116.238.109.579.258.97.444.409.165.838.423 1.316.677.488.242.94.584 1.418.878.25.145.454.333.67.496.219.17.44.326.637.496.191.165.368.332.546.498.175.156.349.303.475.462.272.294.513.536.662.715l.23.292m3.201-2.558l2.132-1.712-.344-.439c-.228-.267-.572-.634-.986-1.08a8.598 8.598 0 00-.693-.672c-.256-.231-.524-.473-.8-.727-.285-.235-.596-.466-.9-.707-.308-.23-.618-.493-.953-.693-.655-.416-1.293-.876-1.936-1.204-.636-.344-1.224-.686-1.74-.899-.528-.233-.96-.434-1.258-.57-.152-.07-.274-.111-.358-.148-.081-.029-.125-.047-.125-.047l-1.02 2.543s.042.013.12.043c.077.03.186.07.32.133.283.125.67.299 1.142.517.48.196 1 .507 1.572.815.585.287 1.146.701 1.734 1.07.303.172.56.41.84.614.27.213.54.408.788.62.245.225.476.435.698.636.23.209.441.39.611.592.356.386.66.697.86.93.18.24.296.385.296.385m3.199-2.579l2.133-1.7s-.155-.193-.414-.53c-.272-.317-.692-.758-1.181-1.284-.241-.27-.53-.532-.832-.806l-.952-.858c-.333-.29-.692-.552-1.06-.835-.358-.27-.721-.585-1.106-.813-.763-.496-1.52-1.026-2.251-1.404-.735-.392-1.416-.786-2.005-1.035a115.37 115.37 0 01-1.422-.643c-.174-.074-.31-.122-.4-.16-.095-.032-.149-.055-.149-.055l-1.013 2.536s.048.02.134.048c.085.031.212.08.369.153.312.141.768.352 1.311.596.549.226 1.162.588 1.834.944.67.342 1.34.824 2.038 1.275.344.204.674.48 1.005.724.326.263.647.501.952.754.299.27.577.53.85.772.272.243.528.478.743.716.44.471.806.863 1.054 1.145.23.302.362.46.362.46m3.203-2.556l2.132-1.716-.489-.602c-.322-.38-.796-.888-1.371-1.504a15.73 15.73 0 00-.963-.935c-.345-.321-.719-.648-1.102-.998-.389-.333-.803-.634-1.218-.963-.422-.312-.845-.66-1.285-.928-.858-.57-1.737-1.17-2.557-1.598-.828-.446-1.606-.885-2.261-1.168-.661-.3-1.21-.539-1.599-.72a3.41 3.41 0 00-.446-.182c-.097-.04-.15-.058-.15-.058l-1.018 2.535s.047.02.142.05c.095.041.238.095.417.184.359.154.87.382 1.485.658.605.268 1.322.67 2.087 1.083.756.396 1.56.948 2.358 1.464.39.242.783.569 1.162.852.38.296.759.577 1.118.88.347.318.68.62.997.906.312.292.617.564.875.852.52.551.951 1.018 1.253 1.354.268.352.434.554.434.554m-31.169 16.743l-2.166-.3s-.047.3-.083.728c-.033.43-.027.955.019 1.417.037.467.115.863.209 1.123.018.06.036.127.053.179a.817.817 0 00.053.122l.035.107 2.026-.83s-.007-.022-.02-.053c-.007-.021-.012-.041-.022-.066-.02-.03-.02-.064-.031-.1-.057-.131-.1-.371-.127-.684a5.215 5.215 0 01-.005-1.061c.03-.326.06-.582.06-.582m-4.063-.565l-2.17-.307s-.06.408-.099.999c-.062.602-.056 1.37.014 2.114.068.734.204 1.425.364 1.911.04.129.072.235.108.33.035.104.063.184.1.252.05.136.077.22.077.22l2.024-.838s-.022-.059-.066-.161c-.017-.05-.038-.115-.071-.186-.018-.076-.054-.158-.076-.25-.12-.361-.228-.898-.276-1.493a9.258 9.258 0 01-.02-1.74c.037-.497.09-.85.09-.85m-4.058-.575l-2.17-.305s-.077.5-.135 1.27c-.068.77-.073 1.79.024 2.805.096 1 .297 1.994.529 2.712.053.176.102.344.154.486.056.146.099.268.144.37.072.206.12.321.12.321l2.023-.833s-.042-.1-.108-.265a7.163 7.163 0 00-.114-.308c-.036-.117-.077-.26-.123-.412-.2-.586-.368-1.421-.454-2.284a15.455 15.455 0 01-.018-2.425c.058-.68.128-1.132.128-1.132m-4.066-.568l-2.164-.315s-.094.614-.17 1.558c-.076.928-.092 2.2.04 3.477.115 1.286.374 2.568.677 3.518.076.236.137.451.2.643.074.186.145.359.193.492.103.265.17.419.17.419l2.014-.831s-.047-.132-.144-.371l-.16-.428c-.06-.161-.112-.354-.177-.562-.263-.822-.492-1.95-.598-3.082a17.401 17.401 0 01-.03-3.122c.067-.846.149-1.396.149-1.396m-4.064-.576l-2.162-.302s-.11.712-.19 1.815a23.638 23.638 0 00.034 4.172c.147 1.556.465 3.141.84 4.312.093.294.175.565.256.803.09.233.166.44.233.609l.203.532 2.023-.842s-.061-.168-.184-.47c-.057-.152-.131-.338-.208-.551-.067-.208-.147-.446-.227-.716-.338-1.052-.62-2.476-.754-3.882-.132-1.41-.125-2.796-.037-3.809.08-1.014.173-1.67.173-1.67m-4.057-.573l-2.17-.306s-.124.822-.226 2.087a28.266 28.266 0 00.053 4.868c.166 1.823.55 3.702.996 5.108.114.35.206.672.301.958.11.28.201.525.273.734.168.4.257.63.257.63l2.026-.835-.233-.577c-.07-.186-.154-.412-.254-.668-.08-.26-.174-.55-.27-.87-.41-1.283-.766-3.01-.916-4.69a26.335 26.335 0 01-.048-4.497c.093-1.182.21-1.942.21-1.942m32.983 8.331l1.754 1.302s.182-.235.41-.598a8.29 8.29 0 00.669-1.254c.181-.428.298-.817.344-1.086l.044-.184c.003-.052.01-.095.01-.138.014-.072.014-.115.014-.115l-2.175-.227s-.006.027-.009.063a.13.13 0 000 .062c-.005.029-.018.06-.03.102-.02.14-.091.373-.215.672-.12.29-.298.643-.49.924-.187.29-.326.477-.326.477m3.293 2.441l1.76 1.304s.244-.326.566-.828c.336-.501.7-1.187.988-1.861.297-.686.503-1.359.59-1.866l.071-.34a2.8 2.8 0 00.027-.265c.02-.15.033-.23.033-.23l-2.178-.232s-.003.064-.023.173c-.001.056-.012.122-.016.196-.019.08-.033.168-.059.259a7.016 7.016 0 01-.456 1.447 9.93 9.93 0 01-.821 1.542c-.27.42-.482.701-.482.701m3.301 2.443l1.759 1.3s.302-.415.723-1.055c.424-.646.911-1.542 1.31-2.475.391-.929.692-1.897.826-2.635.037-.184.08-.358.1-.51.024-.147.034-.283.05-.389.03-.217.044-.34.044-.34l-2.175-.229-.033.286c-.013.086-.025.196-.041.321-.018.127-.057.265-.086.419-.111.61-.358 1.426-.699 2.228-.34.788-.76 1.571-1.134 2.142-.37.568-.644.937-.644.937m3.294 2.436l1.763 1.297s.371-.493.882-1.276a20.312 20.312 0 001.628-3.084c.51-1.177.886-2.438 1.074-3.417.048-.244.093-.466.124-.666.027-.194.054-.37.069-.516.042-.29.061-.45.061-.45l-2.178-.233s-.021.145-.049.398a9.629 9.629 0 01-.058.453c-.033.172-.072.36-.107.573a15.772 15.772 0 01-.949 3.002c-.452 1.053-.993 2.052-1.462 2.756-.458.72-.798 1.163-.798 1.163m3.299 2.439l1.762 1.297s.438-.575 1.04-1.506a24.493 24.493 0 001.948-3.688c.613-1.433 1.085-2.984 1.31-4.198.066-.303.12-.57.156-.82l.096-.654.066-.558-2.177-.234s-.018.193-.06.51c-.02.16-.053.353-.078.58-.038.225-.085.472-.142.737-.206 1.085-.628 2.477-1.182 3.78a22.487 22.487 0 01-1.78 3.364c-.552.855-.96 1.39-.96 1.39m3.296 2.433l1.766 1.302s.5-.652 1.186-1.732a27.667 27.667 0 002.276-4.299c.725-1.687 1.279-3.526 1.554-4.97.078-.358.143-.688.194-.987.044-.301.075-.557.11-.776.051-.426.078-.673.078-.673l-2.176-.224-.074.616c-.024.19-.06.434-.1.706-.043.268-.101.569-.17.902-.25 1.315-.762 3.001-1.43 4.546a25.698 25.698 0 01-2.099 3.978c-.644.996-1.115 1.611-1.115 1.611m-24.561-10.104l-.947 1.977s.272.129.668.289c.394.17.904.322 1.362.419.45.104.855.152 1.129.136.067.004.13.009.18.011a.763.763 0 01.143-.016c.07-.004.117-.009.117-.009l-.19-2.178s-.018-.004-.058 0a.205.205 0 00-.062.014c-.035 0-.068-.007-.101-.007-.142.007-.388-.022-.702-.082a6.513 6.513 0 01-1.009-.323c-.305-.122-.53-.231-.53-.231m-1.777 3.699l-.95 1.972s.372.181.918.401c.56.235 1.293.467 2.02.63.721.151 1.437.228 1.943.217.129 0 .237.011.35.011.1-.011.185-.013.268-.022l.23-.012-.186-2.175s-.064.002-.173.002a3.533 3.533 0 01-.2.018c-.08 0-.16-.005-.261-.005a7.201 7.201 0 01-1.507-.176 9.693 9.693 0 01-1.664-.516c-.47-.19-.788-.345-.788-.345m-1.775 3.7l-.94 1.972s.452.229 1.164.511c.708.293 1.687.61 2.68.827.981.218 1.99.317 2.748.312.182.005.357.01.504.005.156-.009.289-.013.4-.023.223-.007.344-.016.344-.016l-.184-2.182s-.106.004-.29.018a6.433 6.433 0 01-.322.018c-.126.007-.27-.004-.427-.004-.625.004-1.468-.08-2.315-.265-.846-.188-1.698-.453-2.318-.722-.637-.245-1.044-.451-1.044-.451m-1.775 3.697l-.948 1.972s.56.27 1.425.625c.868.36 2.069.754 3.335 1.023 1.254.272 2.565.417 3.56.412.238 0 .465.007.669.005.206-.012.38-.023.528-.036.287-.016.452-.028.452-.028l-.183-2.18s-.143.014-.396.03c-.125.002-.284.013-.457.024-.18.005-.375-.004-.585-.006-.869.006-2.018-.114-3.129-.36a17.573 17.573 0 01-2.978-.92c-.791-.316-1.293-.56-1.293-.56m-1.775 3.696l-.948 1.968s.643.324 1.671.74c1.027.42 2.47.897 3.993 1.223 1.526.335 3.136.507 4.372.507.306.002.58.002.84.002.247-.018.466-.025.647-.04l.575-.034-.193-2.176s-.187.004-.505.03c-.16.006-.36.013-.59.031-.224.009-.477 0-.749-.002-1.104.002-2.548-.15-3.937-.458a21.838 21.838 0 01-3.634-1.116c-.943-.376-1.542-.675-1.542-.675m-1.772 3.698l-.952 1.969s.746.37 1.93.847a28.009 28.009 0 004.649 1.428c1.788.39 3.7.59 5.175.59.367.006.7.015.999.006.306-.018.562-.03.783-.043.428-.025.682-.043.682-.043l-.187-2.183s-.223.01-.626.041c-.198.011-.43.025-.71.032-.279.014-.577.005-.912 0-1.347 0-3.099-.179-4.742-.539a26.302 26.302 0 01-4.298-1.318 30.59 30.59 0 01-1.79-.787" mask="url(#b)"/><path fill="#FEFEFE" d="M211.688 19.831c-3.055-4.096-7.757-7.397-12.62-8.895-4.298-1.33-8.838-.945-12.968.756-3.553 1.47-7.218 3.885-9.518 7.013-4.761 6.467-5.813 14.891-.596 21.442 5.221 6.55 14.57 9.502 22.38 5.848 4.044-1.891 7.572-5.728 8.725-10.077 1.149-4.334.854-9.13-1.471-13.014-2.623-4.39-8.196-7.578-13.332-7.293-4.916.258-9.725 2.825-12.145 7.186-2.11 3.794-2.495 9.022-.151 12.76 1.878 3.016 4.867 5.85 8.465 6.516 8.597 1.587 16.483-8.748 11.095-16.2-2.97-4.093-8.054-5.37-12.608-3.237-2.692 1.264-3.804 3.985-3.845 6.82-.028 1.698.621 3.072 1.61 4.424 2.518 3.45 6.586 4.507 10.088 1.823 1.926-1.481 2.905-3.28 2.56-5.73-.353-2.388-2.712-4.55-5.123-4.658-2.565-.113-5.2 1.797-5.023 4.532.148 2.158 1.603 4.297 4.022 3.657 1.17-.308 2.174-1.12 2.348-2.328.148-.97-.308-2.4-1.275-2.818-2.568-1.119-4.497 3.128-1.51 3.447.405.044.437-.577.04-.622-2.373-.249-.258-2.214.227-2.366.721-.215 1.281.215 1.622.786.379.645.473 1.81-.072 2.397-1.237 1.309-3.07 1.313-4.146-.079-2.286-2.952.943-6.113 3.967-5.979 3.473.152 5.507 4.782 3.698 7.553-1.53 2.338-4.603 3.815-7.297 2.9-4.845-1.655-6.958-8.377-3.182-12.126 1.962-1.95 5.237-2.255 7.84-1.877 2.756.398 5.379 3.07 6.533 5.477 1.92 4-.041 8.71-3.316 11.263-4.332 3.37-9.483 3.106-13.462-.573a16.297 16.297 0 01-3.238-4.2c-1.098-1.999-1.019-4.29-.788-6.52.682-6.419 5.906-10.645 12.04-11.51 5.873-.836 12.08 3.02 14.566 8.277 1.866 3.96 1.649 8.961.074 12.984-.968 2.475-3.168 4.682-5.239 6.283-2.25 1.736-4.993 2.706-7.801 3-3.606.367-7.583-.473-10.77-2.208-4.57-2.486-8.332-7.396-8.985-12.592-.504-3.953.85-7.958 2.853-11.316 4.356-7.272 13.96-11.529 22.2-9.427 5.043 1.274 9.943 4.74 13.06 8.913.242.324.704-.093.468-.412" mask="url(#b)"/><path fill="#FEFEFE" d="M209.652 21.101c-3.178-4.26-8.277-7.575-13.501-8.497-7.778-1.363-16.143 3.415-19.72 10.292-1.788 3.433-2.57 7.377-1.563 11.17 1.1 4.163 4.67 8.231 8.547 10.068 3.415 1.618 7.363 2.232 11.085 1.496 4.486-.896 9.067-4.512 10.631-8.868 1.42-3.942 1.348-8.594-.608-12.333-2.323-4.437-7.766-7.503-12.751-7.077-5.074.425-9.662 3.561-11.275 8.463-.721 2.194-1.066 5.262-.255 7.472.485 1.338 1.365 2.565 2.266 3.654 2.525 3.056 6.272 4.994 10.255 3.873 3.86-1.089 6.747-4.172 7.47-8.078.812-4.38-2.693-9.285-7.131-9.92-2.312-.336-4.842.14-6.722 1.58-1.867 1.42-2.888 4.627-2.18 6.867.965 3.049 4.305 5.809 7.575 5.26 2.058-.339 4.323-2.14 4.955-4.14.776-2.456-.782-4.981-3.037-5.954-1.878-.815-4.118-.218-5.361 1.421-1.267 1.653-.595 4.015 1.016 5.102 1.74 1.154 3.814-.147 4.161-2.018.43-2.26-2.134-3.084-3.59-1.653-.948.926-.41 1.938.64 2.38.279.106.426-.333.153-.449-1.616-.665-.489-1.704.11-2.042a1.5 1.5 0 012.203.881c.318 1.098-.393 2.1-1.287 2.633-1.47.884-3.18-.6-3.483-2-.435-2.03.913-3.554 2.78-4.05 1.943-.52 3.887.696 4.878 2.349 1.893 3.13-1.265 6.431-4.227 7.084-2.267.498-4.348-1.003-5.711-2.658-1.729-2.094-1.91-4.585-.628-7.076 1.45-2.81 5.132-3.42 7.97-3.016 2.848.406 5.513 3.344 6.306 5.994.65 2.191.085 4.582-.986 6.531-2.322 4.212-8.063 6.068-12.274 3.777-3.077-1.675-5.756-5.02-5.996-8.567-.44-6.84 4.036-12.074 10.685-13.14 5.987-.963 12.237 3.323 14 9.01 1.193 3.867.677 8.676-1.645 12.02-3.464 4.99-9.038 7.266-14.986 6.282-4.264-.705-7.648-2.872-10.413-6.203-3.24-3.878-3.84-8.87-2.197-13.554 2.697-7.69 10.856-13.212 19.041-12.56 5.565.446 11.133 4.058 14.444 8.5.184.247.535-.07.356-.306" mask="url(#b)"/><path fill="#FEFEFE" d="M207.772 21.937c-3.353-4.492-9.001-7.816-14.652-7.78-7.689.041-14.704 5.94-16.434 13.324-1.076 4.576.61 8.896 3.891 12.134 2.654 2.621 5.792 4.011 9.498 4.383 5.56.556 10.215-2.375 13.146-6.969 1.766-2.782 1.75-7.408.71-10.394-1.63-4.655-6.73-8.455-11.768-8.063-5.202.405-9.642 3.659-10.696 8.893-.823 4.087.444 7.211 3.439 9.94 3.398 3.088 7.638 2.914 11.226.226 2.96-2.21 4.204-6.387 2.555-9.771-2.105-4.327-7.88-5.946-11.727-2.914-1.666 1.315-2.53 4.265-1.764 6.253.565 1.49 1.764 2.8 3.053 3.672 3.437 2.337 8.546-.657 7.97-4.82-.416-2.977-3.683-4.338-6.213-3.17-2.295 1.058-2.692 4.402-.469 5.706 2.173 1.277 4.59-1.26 3.465-3.414-1.065-2.029-5.26 1.238-2.235 2.472.184.075.285-.225.096-.297-2.747-1.114 2.311-4.403 2.099-.729-.073 1.198-1.159 1.993-2.297 1.993-2.244-.01-2.749-2.77-1.83-4.338.73-1.243 2.627-1.814 3.982-1.518 2.264.501 3.48 2.951 3.052 5.075-.557 2.757-4.244 4.233-6.67 3.219-1.674-.709-3.129-2.427-3.779-4.11-.592-1.56.116-3.757 1.04-5.03 1.093-1.52 3.106-2.07 4.878-2.178 3.012-.183 5.648 1.66 7.074 4.26 2.58 4.744-1.467 9.918-5.977 11.235-4.334 1.257-8.283-2.155-10.199-5.732-1.232-2.303-.794-5.461.047-7.823 1.036-2.934 3.539-4.983 6.396-6.054 5.736-2.148 12.408.9 14.753 6.561 1.772 4.266.834 9.342-2.031 12.838-6.95 8.472-21.213 4.696-24.295-5.457-2.566-8.445 4.795-16.435 12.388-18.572 6.705-1.892 14.016 1.76 18.05 7.157.115.152.341-.052.228-.208" mask="url(#b)"/></g></svg>