<svg height="53" width="212" xmlns="http://www.w3.org/2000/svg"><path d="M208.27 33.957h-7.709l-13.79-3.338-6.92-3.42 3.786-.074-6.156-3.108h-2.564l-8.875-3.427 3.695-.088-11.67-3.246-12.634-6.719 1.223-2.274h-8.104V1l-1.684 1.56v11.167h-23.55v1.97H86.857l-4.689-2.02V8.779a1.414 1.414 0 10-.389 0v4.732L64.986 6.304 63.823 6.1l-2.518-4.006-1.415-.085 2.373 3.812-1.835-.326-2.306-3.486h-1.414L58.74 5.19l-1.948-.353-1.892-2.83h-1.376l1.634 2.561-2.122-.375s-.275.707-.887 2.062c-.612 1.354-4.187 8.455-4.187 8.455l-7.84 2.475 1.768 3.426h2.218l-3.091 3.339H29.564L9.005 38.727h4.13L1.192 49.94s-.764 1.362.767 1.666l14.014.06h168.945s3.286-3.236 14.619-9.548C202.01 40.648 211 37.203 211 37.203z" fill="none" stroke="#fff" stroke-linecap="round" stroke-linejoin="round" stroke-width="2"/></svg>