<svg xmlns="http://www.w3.org/2000/svg" viewBox="0 0 212 53"><path d="M208.3 34h-7.7l-13.8-3.3-6.9-3.4 3.8-.1-6.2-3.1h-2.6l-8.9-3.4 3.7-.1-11.7-3.2-12.6-6.7 1.2-2.3h-8.1V1l-1.7 1.6v11.2h-23.6v2H86.9l-4.7-2v-5c.7-.1 1.3-.8 1.2-1.5-.1-.8-.7-1.3-1.4-1.3s-1.4.6-1.4 1.3c-.1.7.4 1.4 1.2 1.5v4.7L65 6.3l-1.2-.2-2.5-4-1.4-.1 2.4 3.8-1.8-.3L58.1 2h-1.4l2 3.2-1.9-.4L54.9 2h-1.4l1.6 2.6-2.1-.4-.9 2.1c-.6 1.4-4.2 8.5-4.2 8.5l-7.8 2.5 1.8 3.4h2.2L41 24H29.6L9 38.7h4.1L1.2 49.9s-.8 1.4.8 1.7l14 .1h168.9s3.3-3.2 14.6-9.5c2.5-1.5 11.5-4.9 11.5-4.9l-2.7-3.3z" fill="none" stroke="#1aa4ff" stroke-width="2" stroke-linecap="round" stroke-linejoin="round"/></svg>