<svg xmlns="http://www.w3.org/2000/svg" viewBox="0 0 212 52"><path d="M211 37.9v-.5h-18.3l-6.9-6.8H178l-.5-1.2 1.4-2.2h-7.6l-3.6-3.3h-4l-4-3.6h-13.9l-4.7-6.7h-1.5c-.1-.2-.5-.8-.9-1.5l3.3-1v-.5h-4.1c-.7-1.3-1.6-2.9-2.5-4.5l2.9-1h-3.4l-.9-1.8-1.5-2.3 1.2 2.1.1.4.6 1.4h-1.1l1.3 1.1h.2c.9 2.3 2.2 5.5 2.8 6.7.5 1 .6 2.1.5 3.2l-16.2 4.3H97L94.5 19h-6l-3.4 1.2H68.9l-8.2-8 7.1-.6V9L56.6 8l-3.4-3.4h-6.7l-1.1 3.6-5.9.8v2.5l4.9 1.9-1.3 5.1-10 1.7h-1l.1 3.5h3v3.4H7.1v1h8.5L12 34H1v2c0 .1-.1 8.5 2.4 14.8l.1.2H194l.1-.1c0-.1 4.2-7.7 14-10.5.3-.2 2.9-1.1 2.9-2.5" fill="none" stroke="#1aa4ff" stroke-width="2" stroke-linecap="round" stroke-linejoin="round"/></svg>