<?xml version="1.0" encoding="utf-8"?>
<!-- Generator: Adobe Illustrator 19.2.0, SVG Export Plug-In . SVG Version: 6.00 Build 0)  -->
<svg version="1.1" id="Layer_1" xmlns="http://www.w3.org/2000/svg" xmlns:xlink="http://www.w3.org/1999/xlink" x="0px" y="0px"
	 viewBox="0 0 212 53" style="enable-background:new 0 0 212 53;" xml:space="preserve">
<style type="text/css">
	.st0{fill:none;stroke:#1AA4FF;stroke-width:2;stroke-linecap:round;stroke-linejoin:round;}
</style>
<path class="st0" d="M208.3,34h-7.7l-13.8-3.3l-6.9-3.4l3.8-0.1l-6.2-3.1h-2.6l-8.9-3.4l3.7-0.1l-11.7-3.2l-12.6-6.7l1.2-2.3h-8.1V1
	l-1.7,1.6v11.2h-23.6v2H86.9l-4.7-2V8.8c0.7-0.1,1.3-0.8,1.2-1.5C83.3,6.5,82.7,6,82,6c-0.7,0-1.4,0.6-1.4,1.3
	C80.5,8,81,8.7,81.8,8.8v4.7L65,6.3l-1.2-0.2l-2.5-4L59.9,2l2.4,3.8l-1.8-0.3L58.1,2h-1.4l2,3.2l-1.9-0.4L54.9,2h-1.4l1.6,2.6
	L53,4.2c0,0-0.3,0.7-0.9,2.1c-0.6,1.4-4.2,8.5-4.2,8.5l-7.8,2.5l1.8,3.4h2.2L41,24H29.6L9,38.7h4.1L1.2,49.9c0,0-0.8,1.4,0.8,1.7
	l14,0.1h168.9c0,0,3.3-3.2,14.6-9.5c2.5-1.5,11.5-4.9,11.5-4.9L208.3,34z"/>
</svg>
