<svg height="53" viewBox="0 0 212 53" width="212" xmlns="http://www.w3.org/2000/svg"><path d="m208.27 33.957h-7.709l-13.79-3.338-6.92-3.42 3.786-.074-6.156-3.108h-2.564l-8.875-3.427 3.695-.088-11.67-3.246-12.634-6.719 1.223-2.274h-8.104v-7.263l-1.684 1.56v11.167h-23.55v1.97h-26.461l-4.689-2.02v-4.898c.736-.102 1.268-.756 1.217-1.498-.052-.742-.668-1.317-1.411-1.317-.744 0-1.36.575-1.412 1.317-.05.742.48 1.396 1.217 1.498v4.732l-16.793-7.207-1.163-.204-2.518-4.006-1.415-.085 2.373 3.812-1.835-.326-2.306-3.486h-1.414l2.032 3.181-1.948-.353-1.892-2.83h-1.376l1.634 2.561-2.122-.375s-.275.707-.887 2.062c-.612 1.354-4.187 8.455-4.187 8.455l-7.84 2.475 1.768 3.426h2.218l-3.091 3.339h-11.453l-20.559 14.777h4.13l-11.943 11.213s-.764 1.362.767 1.666l14.014.06h168.945s3.286-3.236 14.619-9.548c2.473-1.47 11.463-4.915 11.463-4.915z" fill="none" stroke="#fff" stroke-linecap="round" stroke-linejoin="round" stroke-width="2"/></svg>