<svg height="52" viewBox="0 0 212 52" width="212" xmlns="http://www.w3.org/2000/svg"><path d="m211 37.894v-.53h-18.323l-6.936-6.848h-7.724l-.484-1.186 1.413-2.237h-7.607l-3.621-3.33h-4.014l-3.996-3.608h-13.939l-4.678-6.739h-1.495c-.134-.216-.452-.777-.88-1.54l3.272-.963v-.547h-4.112c-.739-1.335-1.619-2.929-2.474-4.477l2.894-.994h-3.438l-.897-1.64-1.466-2.255 1.155 2.13.145.355.572 1.42h-1.06l1.297 1.066h.187c.93 2.293 2.247 5.524 2.767 6.714.46.997.626 2.106.48 3.195l-16.175 4.275h-24.821l-2.59-1.203h-5.964l-3.417 1.2h-16.207l-8.172-8.039 7.066-.59-.042-2.587-11.144-.927-3.413-3.373h-6.653l-1.06 3.55-5.936.757v2.485l4.883 1.935-1.28 5.084-9.963 1.708h-.979l.057 3.519h2.975v3.423h-28.073l-.028.994h8.533l-3.58 5.851h-11.054v1.958c0 .085-.12 8.542 2.448 14.848l.068.163h190.488l.074-.138c.04-.075 4.18-7.655 14.041-10.47.297-.1 2.876-.988 2.876-2.408" fill="none" stroke="#fff" stroke-linecap="round" stroke-linejoin="round" stroke-width="2"/></svg>