<?xml version="1.0" encoding="utf-8"?>
<!-- Generator: Adobe Illustrator 19.2.0, SVG Export Plug-In . SVG Version: 6.00 Build 0)  -->
<svg version="1.1" id="Layer_1" xmlns="http://www.w3.org/2000/svg" xmlns:xlink="http://www.w3.org/1999/xlink" x="0px" y="0px"
	 viewBox="0 0 212 52" style="enable-background:new 0 0 212 52;" xml:space="preserve">
<style type="text/css">
	.st0{fill:none;stroke:#1AA4FF;stroke-width:2;stroke-linecap:round;stroke-linejoin:round;}
</style>
<path class="st0" d="M211,37.9v-0.5h-18.3l-6.9-6.8H178l-0.5-1.2l1.4-2.2h-7.6l-3.6-3.3h-4l-4-3.6h-13.9l-4.7-6.7h-1.5
	c-0.1-0.2-0.5-0.8-0.9-1.5l3.3-1v-0.5h-4.1c-0.7-1.3-1.6-2.9-2.5-4.5l2.9-1h-3.4L134,3.3L132.5,1l1.2,2.1l0.1,0.4l0.6,1.4h-1.1
	l1.3,1.1h0.2c0.9,2.3,2.2,5.5,2.8,6.7c0.5,1,0.6,2.1,0.5,3.2l-16.2,4.3H97L94.5,19h-6l-3.4,1.2H68.9l-8.2-8l7.1-0.6l0-2.6L56.6,8
	l-3.4-3.4h-6.7l-1.1,3.6l-5.9,0.8v2.5l4.9,1.9l-1.3,5.1l-10,1.7h-1l0.1,3.5h3v3.4H7.1l0,1h8.5l-3.6,5.9H1v2c0,0.1-0.1,8.5,2.4,14.8
	l0.1,0.2H194l0.1-0.1c0-0.1,4.2-7.7,14-10.5C208.4,40.2,211,39.3,211,37.9"/>
</svg>
